<?xml version="1.0" encoding="UTF-8"?>
<svg xmlns="http://www.w3.org/2000/svg" xmlns:xlink="http://www.w3.org/1999/xlink" width="22pt" height="22pt" viewBox="0 0 500 500" version="1.1">
<g id="surface1">
<path style=" stroke:none;fill-rule:nonzero;fill:#ffffff;fill-opacity:1;" d="M 250 20 C 123.09375 20 20 123.09375 20 250 C 20 376.90625 123.09375 480 250 480 C 376.90625 480 480 376.90625 480 250 C 480 123.09375 376.90625 20 250 20 Z M 250 40 C 366.097656 40 460 133.902344 460 250 C 460 366.097656 366.097656 460 250 460 C 133.902344 460 40 366.097656 40 250 C 40 133.902344 133.902344 40 250 40 Z M 306.933594 140.585938 C 270.929688 140.585938 241.523438 169.980469 241.523438 205.976563 C 241.523438 206.230469 241.597656 206.464844 241.601563 206.71875 C 203.460938 201.644531 169.722656 182.8125 146.542969 154.394531 C 144.46875 151.855469 141.28125 150.492188 138.011719 150.75 C 134.742188 151.007813 131.808594 152.851563 130.15625 155.683594 C 124.527344 165.359375 121.308594 176.636719 121.308594 188.574219 C 121.308594 199.195313 124.269531 209.0625 128.789063 217.96875 C 124.171875 218.945313 120.867188 223.015625 120.859375 227.734375 L 120.859375 228.4375 C 120.859375 247.777344 129.910156 264.527344 143.320313 276.523438 C 140.570313 279.167969 139.5625 283.144531 140.722656 286.777344 C 146.308594 304.148438 159.324219 317.746094 175.625 325.410156 C 162.585938 331.511719 148.609375 335.878906 133.203125 335.878906 C 129.09375 335.878906 125.101563 335.644531 121.191406 335.175781 C 116.558594 334.613281 112.148438 337.335938 110.574219 341.730469 C 109 346.125 110.671875 351.023438 114.609375 353.535156 C 140.652344 370.246094 171.667969 380 204.902344 380 C 258.609375 380 301.058594 357.4375 329.433594 325.253906 C 357.808594 293.070313 372.539063 251.53125 372.539063 212.402344 C 372.539063 211.226563 372.484375 210.101563 372.460938 208.945313 C 382.199219 201.128906 391.359375 192.503906 398.300781 182.109375 C 400.652344 178.59375 400.535156 173.976563 398.007813 170.582031 C 395.484375 167.1875 391.09375 165.75 387.050781 166.992188 C 388.667969 163.847656 390.953125 161.117188 392.050781 157.695313 C 393.316406 153.742188 392.007813 149.417969 388.765625 146.832031 C 385.519531 144.242188 381.015625 143.925781 377.441406 146.035156 C 368.695313 151.21875 358.867188 154.632813 348.691406 157.011719 C 337.257813 147.269531 323.054688 140.585938 306.933594 140.585938 Z M 306.933594 160.585938 C 320.054688 160.585938 331.785156 166.070313 340.058594 174.902344 C 342.410156 177.421875 345.894531 178.550781 349.277344 177.890625 C 350.796875 177.59375 352.015625 176.625 353.515625 176.269531 C 353.328125 176.382813 353.214844 176.585938 353.027344 176.699219 C 349.152344 179.027344 347.316406 183.664063 348.558594 188.015625 C 349.796875 192.363281 353.800781 195.339844 358.320313 195.273438 C 357.632813 195.796875 357.222656 196.625 356.523438 197.128906 C 353.796875 199.097656 352.238281 202.304688 352.382813 205.664063 C 352.476563 207.90625 352.539063 210.160156 352.539063 212.402344 C 352.539063 246.453125 339.398438 283.714844 314.433594 312.03125 C 289.46875 340.347656 253.085938 360 204.902344 360 C 188.371094 360 172.816406 356.695313 158.007813 351.679688 C 176.429688 347.777344 193.871094 341.253906 208.164063 330.039063 C 211.476563 327.425781 212.792969 323.011719 211.453125 319.011719 C 210.113281 315.007813 206.40625 312.277344 202.1875 312.1875 C 188.03125 311.929688 177.128906 303.921875 168.984375 293.59375 C 171.976563 293.207031 175.070313 293.191406 177.929688 292.402344 C 182.402344 291.175781 185.445313 287.039063 185.28125 282.40625 C 185.121094 277.769531 181.792969 273.855469 177.246094 272.949219 C 160.730469 269.617188 147.851563 257.230469 143.125 241.210938 C 147.378906 242.234375 151.105469 244.523438 155.625 244.667969 C 160.082031 244.804688 164.089844 241.976563 165.453125 237.730469 C 166.816406 233.484375 165.207031 228.851563 161.503906 226.367188 C 149.304688 218.210938 141.308594 204.398438 141.308594 188.574219 C 141.308594 185.304688 143.0625 182.707031 143.710938 179.648438 C 172.117188 207.765625 209.917969 226.429688 252.480469 228.574219 C 255.621094 228.730469 258.652344 227.402344 260.664063 224.988281 C 262.675781 222.570313 263.4375 219.347656 262.714844 216.289063 C 261.9375 212.996094 261.523438 209.5625 261.523438 205.976563 C 261.523438 180.792969 281.738281 160.585938 306.933594 160.585938 Z "/>
</g>
</svg>